<svg width="129" height="82" viewBox="0 0 129 82" fill="none" xmlns="http://www.w3.org/2000/svg">
<path d="M67.9024 32.4343C67.9024 33.647 66.9101 34.6393 65.6974 34.6393C64.4846 34.6393 63.4923 33.647 63.4923 32.4343C63.4923 31.2215 64.4295 30.2292 65.6974 30.2292C66.9653 30.2568 67.9024 31.249 67.9024 32.4343ZM58.8618 36.8443C58.8618 37.0373 58.8618 37.3956 58.8618 37.3956C58.8618 37.3956 57.8144 36.045 55.5818 36.045C51.9159 36.045 49.0218 38.8564 49.0218 42.7152C49.0218 46.574 51.8608 49.3855 55.5818 49.3855C57.8419 49.3855 58.8618 48.0073 58.8618 48.0073V48.5861C58.8618 48.8618 59.0547 49.0547 59.3303 49.0547H62.0591V36.3757C62.0591 36.3757 59.5508 36.3757 59.3303 36.3757C59.0547 36.3757 58.8618 36.6238 58.8618 36.8443ZM58.8618 44.9754C58.3656 45.7196 57.3458 46.3535 56.133 46.3535C53.9831 46.3535 52.3294 45.0029 52.3294 42.7152C52.3294 40.4275 53.9831 39.0769 56.133 39.0769C57.3182 39.0769 58.3932 39.7384 58.8618 40.4551V44.9754ZM64.0987 36.3757H67.3512V49.0547H64.0987V36.3757ZM112.472 36.045C110.239 36.045 109.192 37.3956 109.192 37.3956V30.2843H105.939V49.0823C105.939 49.0823 108.447 49.0823 108.668 49.0823C108.944 49.0823 109.137 48.8342 109.137 48.6137V48.0349C109.137 48.0349 110.184 49.413 112.417 49.413C116.082 49.413 118.977 46.574 118.977 42.7428C119.004 38.884 116.11 36.045 112.472 36.045ZM111.948 46.326C110.708 46.326 109.715 45.692 109.219 44.9478V40.4275C109.715 39.766 110.818 39.0494 111.948 39.0494C114.098 39.0494 115.752 40.3999 115.752 42.6877C115.752 44.9754 114.098 46.326 111.948 46.326ZM104.285 41.53V49.0823H101.033V41.9159C101.033 39.8211 100.372 38.9667 98.5248 38.9667C97.5326 38.9667 96.5403 39.4628 95.9063 40.207V49.0547H92.6539V36.3757H95.2173C95.4929 36.3757 95.6858 36.6238 95.6858 36.8443V37.3956C96.623 36.4033 97.8909 36.045 99.1312 36.045C100.537 36.045 101.722 36.4584 102.687 37.2578C103.844 38.1949 104.285 39.4077 104.285 41.53ZM84.7985 36.045C82.5659 36.045 81.5185 37.3956 81.5185 37.3956V30.2843H78.2661V49.0823C78.2661 49.0823 80.7743 49.0823 80.9948 49.0823C81.2704 49.0823 81.4634 48.8342 81.4634 48.6137V48.0349C81.4634 48.0349 82.5108 49.413 84.7434 49.413C88.4092 49.413 91.3033 46.574 91.3033 42.7428C91.3585 38.884 88.4919 36.045 84.7985 36.045ZM84.2748 46.326C83.0345 46.326 82.0422 45.692 81.5461 44.9478V40.4275C82.0422 39.766 83.1447 39.0494 84.2748 39.0494C86.4247 39.0494 88.0785 40.3999 88.0785 42.6877C88.0785 44.9754 86.4247 46.326 84.2748 46.326ZM75.4822 36.045C76.4745 36.045 76.9706 36.2104 76.9706 36.2104V39.2147C76.9706 39.2147 74.2694 38.3052 72.5881 40.2346V49.1098H69.3357V36.3757C69.3357 36.3757 71.8439 36.3757 72.0644 36.3757C72.34 36.3757 72.533 36.6238 72.533 36.8443V37.3956C73.1669 36.6789 74.49 36.045 75.4822 36.045ZM41.8554 47.9246C41.6901 47.5112 41.5247 47.0702 41.3593 46.7118C41.0837 46.1055 40.8081 45.5266 40.5875 45.0029L40.56 44.9754C38.2447 39.9038 35.7365 34.7771 33.0904 29.7331L32.9802 29.5401C32.7046 29.044 32.4289 28.4928 32.1809 27.9415C31.8501 27.3351 31.5193 26.7012 30.9681 26.0948C29.8931 24.7442 28.3496 24 26.6958 24C25.0145 24 23.4985 24.7442 22.3685 26.0121C21.8723 26.6185 21.4864 27.2524 21.1557 27.8588C20.8801 28.4101 20.6044 28.9338 20.3564 29.4575L20.2461 29.6504C17.6552 34.722 15.1194 39.8487 12.7766 44.8927L12.749 44.9478C12.5009 45.4991 12.2529 46.0503 11.9772 46.6567C11.8119 47.015 11.6465 47.4285 11.4811 47.8695C11.0401 49.1098 10.9023 50.295 11.0677 51.5078C11.426 54.0436 13.1349 56.1659 15.4502 57.1031C16.3322 57.4614 17.2418 57.6543 18.1789 57.6543C18.4545 57.6543 18.7853 57.6268 19.0609 57.5992C20.1634 57.4614 21.3211 57.1031 22.4236 56.4416C23.8017 55.6698 25.1247 54.5397 26.6131 52.9411C28.1015 54.5673 29.4521 55.6698 30.8027 56.4416C31.9052 57.0755 33.0629 57.4614 34.1654 57.5992C34.441 57.6268 34.7718 57.6543 35.0474 57.6543C35.9845 57.6543 36.9492 57.489 37.7761 57.1031C40.1465 56.1659 41.8003 53.9885 42.1586 51.5078C42.4343 50.3502 42.2964 49.1649 41.8554 47.9246ZM26.6407 49.6611C24.8216 47.3734 23.6363 45.1959 23.2229 43.3767C23.0575 42.605 23.03 41.9159 23.1127 41.3095C23.1678 40.7583 23.3883 40.2897 23.6639 39.9038C24.2979 38.9942 25.3728 38.4154 26.6407 38.4154C27.9086 38.4154 29.0111 38.9667 29.6175 39.9038C29.8931 40.3172 30.0861 40.7858 30.1688 41.3095C30.279 41.9159 30.2239 42.6325 30.0585 43.3767C29.6451 45.1959 28.4599 47.3458 26.6407 49.6611ZM40.0914 51.2597C39.8433 53.0238 38.6857 54.5397 37.0319 55.2012C36.2326 55.532 35.3506 55.6422 34.4686 55.532C33.6141 55.4217 32.7872 55.1737 31.9052 54.65C30.6925 53.9885 29.4797 52.9411 28.0464 51.37C30.279 48.6413 31.6296 46.133 32.1257 43.9004C32.3738 42.853 32.4014 41.9159 32.2911 41.0339C32.1533 40.1794 31.8501 39.4077 31.3815 38.7462C30.3341 37.2302 28.5701 36.3482 26.6131 36.3482C24.6562 36.3482 22.8922 37.2578 21.8448 38.7462C21.3762 39.4077 21.073 40.207 20.9352 41.0339C20.7974 41.9159 20.8249 42.8806 21.1006 43.9004C21.5967 46.133 23.0024 48.6688 25.1799 51.3975C23.8017 52.9411 22.5614 53.9885 21.3211 54.6775C20.439 55.1737 19.6122 55.4493 18.7577 55.5595C17.8481 55.6698 16.9661 55.532 16.1944 55.2288C14.5406 54.5673 13.3554 53.0238 13.1349 51.2873C13.0246 50.4328 13.1073 49.606 13.4381 48.6688C13.5483 48.3381 13.7137 48.0073 13.8791 47.5939C14.1271 47.0426 14.3752 46.4913 14.6508 45.9125L14.6784 45.8574C16.9937 40.8409 19.5019 35.6867 22.0928 30.6978L22.2031 30.5048C22.4787 30.0087 22.7543 29.4575 23.0024 28.9613C23.278 28.4101 23.5812 27.9139 23.9395 27.4729C24.6562 26.6736 25.5933 26.2326 26.6407 26.2326C27.6881 26.2326 28.6252 26.6736 29.3419 27.4729C29.7002 27.9139 30.0034 28.4101 30.279 28.9613C30.5546 29.4575 30.8303 30.0087 31.0783 30.5048L31.1886 30.6978C33.7519 35.7142 36.2602 40.8685 38.5755 45.885V45.9125C38.8511 46.4638 39.0716 47.0702 39.3472 47.5939C39.5126 48.0073 39.678 48.3381 39.7882 48.6688C40.119 49.5233 40.2292 50.3777 40.0914 51.2597Z" fill="white"/>
</svg>
