<svg width="136" height="23" viewBox="0 0 136 23" fill="none" xmlns="http://www.w3.org/2000/svg">
<path d="M28.3764 8.51182L29.566 6.10579H21.9346L19.9351 15.9248H26.9539L28.1409 13.5189H23.2989L23.5899 12.0959H26.6046L27.7942 9.69242H24.0886L24.329 8.51182H28.3764Z" fill="white"/>
<path d="M46.4486 0.38472H38.8097L28.2927 21.6462H34.6434L36.5823 17.3428H42.133L42.4899 21.6409H48.5646L46.4486 0.38472ZM38.6274 12.5071C39.8322 9.89285 40.8194 7.70029 41.5888 5.81079C41.6698 7.65549 41.8242 10.0615 42.0242 12.5071H38.6274Z" fill="white"/>
<path d="M66.2923 0.38472H49.3464L48.3416 5.21521H53.8012L50.4753 21.6462H56.5449L59.8708 5.21521H65.2874L66.2923 0.38472Z" fill="white"/>
<path d="M82.1955 2.67218C80.6769 0.924987 78.3761 0 75.5589 0C68.0111 0 64.0601 6.68574 64.0601 13.2897C64.0601 18.7633 67.2645 22.0311 72.6329 22.0311C76.4297 22.0311 79.5277 20.6 81.5931 17.8962C83.3421 15.6062 84.304 12.4623 84.304 9.04169C84.304 6.45646 83.5725 4.25336 82.1955 2.67218ZM73.2429 17.2901C70.8106 17.2901 70.3018 15.1819 70.3018 13.3952C70.3155 11.4295 70.7433 9.49097 71.5547 7.71614C72.2103 6.35895 73.3923 4.74088 75.2881 4.74088C77.1839 4.74088 78.1635 6.05853 78.1635 8.69383C78.1635 12.0143 76.8271 17.2901 73.2429 17.2901Z" fill="white"/>
<path d="M109.628 0.384557H100.902L100.836 0.547947C100.404 1.58625 99.9586 2.64037 99.5182 3.68658C98.1489 6.94379 96.8454 10.0455 95.9088 12.5359C96.038 9.23387 96.1239 4.03707 96.0986 0.653357V0.389828H87.5739L83.2432 21.646H88.7534L90.1378 14.8339C90.6441 12.3882 91.1377 9.68714 91.5123 7.45505C91.4566 10.0745 91.4413 13.0472 91.4288 15.9512C91.4288 17.8144 91.4111 19.6565 91.3907 21.3693V21.6329H96.3189L96.3872 21.4695C98.6652 16.083 100.746 10.8177 102.156 7.19942C101.65 9.43942 101.07 12.2066 100.596 14.5467L99.1614 21.6329H105.301L107.074 12.9075H102.69L109.628 0.371384V0.384557Z" fill="white"/>
<path d="M110.843 0.38472L109.066 9.11017H113.65L106.514 21.6462H112.941L117.27 0.38472H110.843Z" fill="white"/>
<path d="M127.252 4.73026C128.906 4.73026 129.65 5.592 129.657 7.52893V7.79247H135.792V7.52893C135.792 5.3759 135.157 3.55228 133.919 2.25836C132.512 0.782594 130.358 0.00254822 127.69 0.00254822C123.98 0.00254822 120.934 1.58373 118.884 4.55633C117.254 6.92809 116.318 10.1036 116.318 13.2739C116.318 18.8397 119.31 22.0335 124.526 22.0335C129.702 22.0335 133.162 19.4457 134.529 14.5467L134.629 14.1988H128.462L128.396 14.3701C127.814 15.8776 127.012 17.269 125.106 17.269C123.46 17.269 122.66 16.054 122.66 13.5559C122.656 9.8559 124.252 4.73026 127.252 4.73026Z" fill="white"/>
<path d="M3.7207 8.51182H6.18602L4.68507 15.9248H7.64395L9.1449 8.51182H11.5874L12.0886 6.10579H4.22188L3.7207 8.51182Z" fill="white"/>
<path d="M18.0364 6.10579L17.3253 9.58965H15.1258L15.8395 6.10579H12.8756L10.876 15.9248H13.8398L14.6321 11.9956H16.8317L16.0394 15.9248H19.0059L21.0055 6.10579H18.0364Z" fill="white"/>
<path d="M5.41401 0.38472L4.91284 2.80129H33.4437L34.6384 0.38472H5.41401Z" fill="white"/>
<path d="M1.47544 19.2296L0.976807 21.6462H24.1214L25.3161 19.2296H1.47544Z" fill="white"/>
<path d="M28.3764 8.51722L29.566 6.11119H21.9346L19.9351 15.9303H26.9539L28.1409 13.5243H23.2989L23.5899 12.1012H26.6046L27.7942 9.69783H24.0886L24.329 8.51722H28.3764Z" fill="white"/>
<path d="M46.4486 0.389832H38.8097L28.2927 21.6514H34.6434L36.5823 17.3426H42.133L42.4899 21.6408H48.5646L46.4486 0.389832ZM38.6274 12.5122C39.8322 9.89796 40.8194 7.7054 41.5888 5.8159C41.6698 7.6606 41.8242 10.0666 42.0242 12.5122H38.6274Z" fill="white"/>
<path d="M66.2923 0.389832H49.3464L48.3416 5.22032H53.8012L50.4753 21.6514H56.5449L59.8708 5.22032H65.2874L66.2923 0.389832Z" fill="white"/>
<path d="M82.1955 2.6773C80.6769 0.930099 78.3761 0.00511169 75.5589 0.00511169C68.0111 0.00511169 64.0601 6.69084 64.0601 13.2948C64.0601 18.7684 67.2645 22.0361 72.6329 22.0361C76.4297 22.0361 79.5277 20.6051 81.5931 17.9014C83.3421 15.6113 84.304 12.4674 84.304 9.04679C84.304 6.46158 83.5725 4.25847 82.1955 2.6773ZM73.2429 17.2953C70.8106 17.2953 70.3018 15.187 70.3018 13.4003C70.3155 11.4346 70.7433 9.49609 71.5547 7.72124C72.2103 6.36407 73.3923 4.746 75.2881 4.746C77.1839 4.746 78.1635 6.06364 78.1635 8.69894C78.1635 12.0168 76.8271 17.2953 73.2429 17.2953Z" fill="white"/>
<path d="M109.628 0.389976H100.902L100.836 0.553364C100.404 1.59167 99.9586 2.64579 99.5182 3.69201C98.1489 6.94922 96.8454 10.051 95.9088 12.5413C96.038 9.23666 96.1239 4.04249 96.0986 0.658778V0.395248H87.5739L83.2432 21.6515H88.7534L90.1378 14.8393C90.6441 12.3937 91.1377 9.68993 91.5123 7.46047C91.4566 10.0773 91.4413 13.0526 91.4288 15.9566C91.4288 17.8197 91.4111 19.6618 91.3907 21.3748V21.6384H96.3189L96.3872 21.475C98.6652 16.0884 100.746 10.8231 102.156 7.20484C101.65 9.44484 101.07 12.1987 100.596 14.5494L99.1614 21.6384H105.301L107.074 12.9129H102.69L109.628 0.376801V0.389976Z" fill="white"/>
<path d="M110.843 0.389832L109.066 9.11528H113.65L106.514 21.6514H112.941L117.27 0.389832H110.843Z" fill="white"/>
<path d="M127.252 4.73559C128.906 4.73559 129.65 5.59733 129.657 7.53427V7.7978H135.792V7.53427C135.792 5.38123 135.157 3.55761 133.919 2.26369C132.512 0.79056 130.358 0.0105133 127.69 0.0105133C123.98 0.0105133 120.934 1.59169 118.884 4.56429C117.254 6.93606 116.318 10.0984 116.318 13.2792C116.318 18.8476 119.31 22.0416 124.526 22.0416C129.702 22.0416 133.162 19.4511 134.529 14.5547L134.629 14.2067H128.462L128.396 14.3782C127.814 15.8855 127.012 17.277 125.106 17.277C123.46 17.277 122.66 16.0621 122.66 13.5638C122.656 9.86123 124.252 4.73559 127.252 4.73559Z" fill="white"/>
<path d="M5.41401 0.389832L4.91284 2.80639H33.4437L34.6384 0.389832H5.41401Z" fill="white"/>
<path d="M1.47544 19.2348L0.976807 21.6514H24.1214L25.3161 19.2348H1.47544Z" fill="white"/>
</svg>
