<svg width="129" height="82" viewBox="0 0 129 82" fill="none" xmlns="http://www.w3.org/2000/svg">
<path d="M36.698 38.8086L37.5099 37.1667H32.302L30.9375 43.8674H35.7273L36.5373 42.2255H33.2331L33.4316 41.2544H35.4889L36.3007 39.6143H33.772L33.936 38.8086H36.698Z" fill="white"/>
<path d="M49.0307 33.2625H43.8178L36.6409 47.7718H40.9747L42.2978 44.835H46.0857L46.3293 47.7681H50.4748L49.0307 33.2625ZM43.6935 41.5351C44.5156 39.7511 45.1893 38.2548 45.7144 36.9654C45.7696 38.2243 45.875 39.8662 46.0115 41.5351H43.6935Z" fill="white"/>
<path d="M62.5725 33.2625H51.0082L50.3225 36.559H54.0483L51.7786 47.7718H55.9207L58.1903 36.559H61.8867L62.5725 33.2625Z" fill="white"/>
<path d="M73.4251 34.8235C72.3887 33.6312 70.8186 33 68.8961 33C63.7454 33 61.0491 37.5625 61.0491 42.0691C61.0491 45.8044 63.2358 48.0344 66.8994 48.0344C69.4903 48.0344 71.6045 47.0578 73.0139 45.2127C74.2075 43.6499 74.8639 41.5045 74.8639 39.1702C74.8639 37.406 74.3647 35.9026 73.4251 34.8235ZM67.3156 44.7991C65.6558 44.7991 65.3086 43.3604 65.3086 42.1411C65.3179 40.7997 65.6098 39.4768 66.1636 38.2656C66.6109 37.3395 67.4175 36.2353 68.7113 36.2353C70.005 36.2353 70.6735 37.1344 70.6735 38.9328C70.6735 41.1988 69.7615 44.7991 67.3156 44.7991Z" fill="white"/>
<path d="M92.1455 33.2624H86.191L86.1461 33.3739C85.8511 34.0825 85.5471 34.8018 85.2465 35.5158C84.3121 37.7386 83.4225 39.8553 82.7834 41.5548C82.8716 39.3014 82.9302 35.755 82.9129 33.4459V33.266H77.0955L74.1401 47.7716H77.9004L78.8452 43.1229C79.1907 41.454 79.5275 39.6107 79.7831 38.0875C79.7451 39.875 79.7347 41.9037 79.7261 43.8854C79.7261 45.1569 79.7141 46.4139 79.7002 47.5828V47.7627H83.0632L83.1099 47.6512C84.6644 43.9753 86.0843 40.3822 87.0464 37.913C86.701 39.4416 86.3052 41.33 85.9823 42.9269L85.003 47.7627H89.1931L90.4028 41.8083H87.4109L92.1455 33.2534V33.2624Z" fill="white"/>
<path d="M92.9746 33.2625L91.7622 39.217H94.8901L90.0208 47.7718H94.4066L97.3604 33.2625H92.9746Z" fill="white"/>
<path d="M104.172 36.228C105.301 36.228 105.809 36.8161 105.814 38.1379V38.3177H110V38.1379C110 36.6686 109.567 35.4241 108.722 34.5411C107.762 33.5341 106.292 33.0017 104.472 33.0017C101.94 33.0017 99.8612 34.0808 98.462 36.1093C97.3497 37.7279 96.7112 39.8949 96.7112 42.0583C96.7112 45.8565 98.7525 48.0361 102.312 48.0361C105.845 48.0361 108.206 46.2701 109.138 42.9269L109.207 42.6895H104.999L104.953 42.8064C104.556 43.8352 104.009 44.7847 102.708 44.7847C101.585 44.7847 101.039 43.9556 101.039 42.2508C101.036 39.7258 102.126 36.228 104.172 36.228Z" fill="white"/>
<path d="M19.8726 38.8086H21.5549L20.5307 43.8674H22.5499L23.5741 38.8086H25.2409L25.583 37.1667H20.2146L19.8726 38.8086Z" fill="white"/>
<path d="M29.6418 37.1667L29.1565 39.5441H27.6555L28.1426 37.1667H26.1199L24.7554 43.8674H26.778L27.3186 41.186H28.8197L28.279 43.8674H30.3034L31.6679 37.1667H29.6418Z" fill="white"/>
<path d="M21.028 33.2625L20.686 34.9117H40.156L40.9713 33.2625H21.028Z" fill="white"/>
<path d="M18.3403 46.1227L18 47.7718H33.7943L34.6096 46.1227H18.3403Z" fill="white"/>
<path d="M36.698 38.8123L37.5099 37.1704H32.302L30.9375 43.8711H35.7273L36.5373 42.2292H33.2331L33.4316 41.2581H35.4889L36.3007 39.618H33.772L33.936 38.8123H36.698Z" fill="white"/>
<path d="M49.0307 33.266H43.8178L36.6409 47.7753H40.9747L42.2978 44.8349H46.0857L46.3293 47.768H50.4748L49.0307 33.266ZM43.6935 41.5385C44.5156 39.7545 45.1893 38.2583 45.7144 36.9689C45.7696 38.2277 45.875 39.8696 46.0115 41.5385H43.6935Z" fill="white"/>
<path d="M62.5725 33.266H51.0082L50.3225 36.5624H54.0483L51.7786 47.7753H55.9207L58.1903 36.5624H61.8867L62.5725 33.266Z" fill="white"/>
<path d="M73.4251 34.827C72.3887 33.6347 70.8186 33.0035 68.8961 33.0035C63.7454 33.0035 61.0491 37.5659 61.0491 42.0726C61.0491 45.8079 63.2358 48.0378 66.8994 48.0378C69.4903 48.0378 71.6045 47.0613 73.0139 45.2162C74.2075 43.6534 74.8639 41.508 74.8639 39.1737C74.8639 37.4095 74.3647 35.906 73.4251 34.827ZM67.3156 44.8026C65.6558 44.8026 65.3086 43.3639 65.3086 42.1446C65.3179 40.8032 65.6098 39.4803 66.1636 38.2691C66.6109 37.3429 67.4175 36.2387 68.7113 36.2387C70.005 36.2387 70.6735 37.1379 70.6735 38.9363C70.6735 41.2005 69.7615 44.8026 67.3156 44.8026Z" fill="white"/>
<path d="M92.1455 33.2661H86.191L86.1461 33.3776C85.8511 34.0862 85.5471 34.8055 85.2465 35.5195C84.3121 37.7423 83.4225 39.859 82.7834 41.5584C82.8716 39.3033 82.9302 35.7587 82.9129 33.4496V33.2697H77.0955L74.1401 47.7754H77.9004L78.8452 43.1266C79.1907 41.4577 79.5275 39.6126 79.7831 38.0912C79.7451 39.8769 79.7347 41.9073 79.7261 43.8891C79.7261 45.1605 79.7141 46.4176 79.7002 47.5866V47.7664H83.0632L83.1099 47.6549C84.6644 43.979 86.0843 40.3859 87.0464 37.9167C86.701 39.4453 86.3052 41.3246 85.9823 42.9288L85.003 47.7664H89.1931L90.4028 41.812H87.4109L92.1455 33.2571V33.2661Z" fill="white"/>
<path d="M92.9746 33.266L91.7622 39.2204H94.8901L90.0208 47.7753H94.4066L97.3604 33.266H92.9746Z" fill="white"/>
<path d="M104.172 36.2316C105.301 36.2316 105.809 36.8197 105.814 38.1415V38.3214H110V38.1415C110 36.6722 109.567 35.4278 108.722 34.5448C107.762 33.5395 106.292 33.0072 104.472 33.0072C101.94 33.0072 99.8612 34.0862 98.462 36.1148C97.3497 37.7333 96.7112 39.8913 96.7112 42.062C96.7112 45.8619 98.7525 48.0416 102.312 48.0416C105.845 48.0416 108.206 46.2738 109.138 42.9324L109.207 42.6949H104.999L104.953 42.8119C104.556 43.8406 104.009 44.7901 102.708 44.7901C101.585 44.7901 101.039 43.961 101.039 42.2562C101.036 39.7295 102.126 36.2316 104.172 36.2316Z" fill="white"/>
<path d="M21.028 33.266L20.686 34.9151H40.156L40.9713 33.266H21.028Z" fill="white"/>
<path d="M18.3403 46.1262L18 47.7753H33.7943L34.6096 46.1262H18.3403Z" fill="white"/>
</svg>
