<svg width="72" height="72" viewBox="0 0 72 72" fill="none" xmlns="http://www.w3.org/2000/svg">
<path d="M71.9369 38.02C71.5528 44.3206 69.7046 50.0681 66.3922 55.2625C63.0798 60.4569 58.7352 64.5451 53.3586 67.5271C48.0299 70.509 42.2452 72 36.0044 72C29.4276 72 23.3789 70.3647 17.8582 67.0942C12.3855 63.8717 8.04099 59.495 4.8246 53.9639C1.6082 48.4329 0 42.4208 0 35.9279C0 29.2425 1.6322 23.1583 4.8966 17.6753C8.16101 12.1924 12.6016 7.88777 18.2182 4.76152C23.8349 1.58717 30.0277 0 36.7965 0C43.2773 0 49.2781 1.75551 54.7988 5.26653C60.3674 8.77755 64.712 13.4669 67.8324 19.3347C70.9527 25.1543 72.3209 31.3828 71.9369 38.02ZM64.4479 35.8557C64.4479 30.9499 63.2478 26.3808 60.8475 22.1483C58.4472 17.9158 55.1588 14.501 50.9823 11.9038C46.8538 9.25851 42.3172 7.79158 37.3726 7.503C31.9959 7.503 27.0993 8.63327 22.6828 10.8938C18.3143 13.1543 14.7858 16.3287 12.0975 20.4168C9.40916 24.4569 7.89697 29.0982 7.56093 34.3407C7.51293 34.7255 7.48892 35.3026 7.48892 36.0721C7.48892 41.0261 8.76108 45.6914 11.3054 50.0681C13.8497 54.4449 17.3061 57.9319 21.6747 60.5291C26.0432 63.1744 30.8198 64.497 36.0044 64.497C41.1411 64.497 45.8697 63.2224 50.1902 60.6734C54.5587 58.1243 58.0152 54.6613 60.5595 50.2846C63.1518 45.9078 64.4479 41.0982 64.4479 35.8557ZM24.123 33.3307C22.9228 33.3307 21.8907 32.9218 21.0266 32.1042C20.2105 31.2866 19.8024 30.2766 19.8024 29.0742C19.8024 27.8717 20.2105 26.8617 21.0266 26.0441C21.8907 25.2265 22.9228 24.8176 24.123 24.8176C25.3231 24.8176 26.3312 25.2265 27.1473 26.0441C27.9634 26.8617 28.3715 27.8717 28.3715 29.0742C28.3715 30.2766 27.9634 31.2866 27.1473 32.1042C26.3312 32.9218 25.3231 33.3307 24.123 33.3307ZM47.3818 24.8176C48.582 24.8176 49.5901 25.2265 50.4062 26.0441C51.2223 26.8617 51.6304 27.8717 51.6304 29.0742C51.6304 30.2766 51.2223 31.2866 50.4062 32.1042C49.5901 32.9218 48.582 33.3307 47.3818 33.3307C46.1817 33.3307 45.1736 32.9218 44.3575 32.1042C43.5414 31.2866 43.1333 30.2766 43.1333 29.0742C43.1333 27.8717 43.5414 26.8617 44.3575 26.0441C45.1736 25.2265 46.1817 24.8176 47.3818 24.8176ZM42.3412 35.4229L52.9265 47.8317L48.318 51.7275L41.9812 44.3687L36.0765 50.2846L30.1717 44.4409L23.4029 51.7996L18.9383 47.7595L30.0277 35.6393L36.0765 41.6994L42.3412 35.4229Z" fill="black"/>
</svg>
