<svg width="161" height="20" viewBox="0 0 161 20" fill="none" xmlns="http://www.w3.org/2000/svg">
<g clip-path="url(#clip0)">
<path d="M60.8235 0.358566H75.2439L74.8363 2.76882C74.6834 3.79446 73.8172 4.66626 72.7471 4.66626H60.0083C59.0401 4.71754 58.2758 5.33292 58.021 6.20471L58.2758 4.66626L58.6834 2.256C58.8363 1.17908 59.7025 0.358566 60.8235 0.358566Z" fill="white"/>
<path d="M17.919 3.07772L14.5559 6.30851C13.8426 5.07772 12.6196 4.46233 10.9381 4.46233C7.26933 4.46233 5.07824 6.92389 5.07824 11.0265C5.07824 13.5393 6.60691 15.0777 8.95085 15.0777C10.5814 15.0777 12.0591 14.4624 13.2821 13.2316L15.8808 17.0777C13.9954 18.6675 11.6005 19.488 8.69608 19.488C6.09735 19.488 4.00818 18.77 2.47952 17.2829C0.950855 15.7957 0.186523 13.7957 0.186523 11.2829C0.186523 8.25723 1.25659 5.59056 3.39671 3.38541C5.53684 1.18028 8.13557 0.0520782 11.1929 0.0520782C14.4031 0.0520782 16.1865 1.02644 17.919 3.07772Z" fill="white"/>
<path d="M49.2057 0.358566C50.9381 0.358566 52.3648 0.871387 53.5368 1.89703C54.7087 2.92267 55.3202 4.256 55.3202 5.89702C55.3202 8.71753 53.6896 11.0252 51.1419 12.1534L53.9954 19.1278H48.798L46.3522 12.8714H44.1611L43.091 19.1278H38.2502L41.5114 0.358566H49.2057ZM45.6388 4.51241L44.8744 8.71753H47.7789C49.2057 8.71753 50.4286 7.74317 50.4286 6.20471C50.4286 5.17907 49.7152 4.51241 48.5432 4.51241H45.6388Z" fill="white"/>
<path d="M91.0909 2.20513L88.0845 5.84615C87.1164 4.92308 85.7406 4.41026 84.11 4.41026C82.6832 4.41026 81.6132 4.87179 81.6132 5.84615C81.6132 6.5641 82.2246 6.97436 84.3138 7.38461C88.3393 8.15384 89.868 9.89743 89.868 12.6667C89.868 17.4872 85.7915 19.4359 81.7151 19.4359C78.6068 19.4359 76.161 18.5128 74.4285 16.6667L77.4348 12.9744C77.8934 13.5897 78.5559 14.1026 79.4221 14.4615C80.2883 14.8205 81.2055 14.9744 82.1227 14.9744C83.9571 14.9744 84.9253 14.4615 84.9253 13.4872C84.9253 12.7692 84.3138 12.359 82.1227 11.8974C78.5559 11.1795 76.7724 9.4359 76.7724 6.66667C76.7724 4.76923 77.4858 3.1282 78.9125 1.89744C80.3393 0.615385 82.1737 0 84.3648 0C87.2183 0 89.4603 0.769231 91.0909 2.20513Z" fill="white"/>
<path d="M109.18 0.358566L108.467 4.61498H102.76L100.212 19.1278H95.3711L97.9189 4.61498H92.2119L92.9253 0.358566H109.18Z" fill="white"/>
<path d="M141.588 3.02564L138.225 6.25641C137.511 5.02564 136.288 4.41026 134.607 4.41026C130.938 4.41026 128.747 6.87179 128.747 10.9744C128.747 13.4872 130.276 15.0256 132.62 15.0256C134.25 15.0256 135.728 14.4103 136.951 13.1795L139.549 17.0256C137.664 18.6154 135.269 19.4359 132.365 19.4359C129.766 19.4359 127.677 18.7179 126.148 17.2308C124.62 15.7436 123.855 13.7436 123.855 11.2308C123.855 8.20513 124.925 5.53846 127.065 3.33333C129.206 1.1282 131.804 0 134.913 0C138.021 0 139.855 0.974359 141.588 3.02564Z" fill="white"/>
<path d="M151.218 9.1803L160.186 0.359768H154.479L147.549 7.1803L148.772 0.308487H143.983L140.721 19.0777H145.511L146.53 13.2829L147.549 12.2572L151.779 19.0777H157.435L151.218 9.1803Z" fill="white"/>
<path d="M59.5496 7.59014H73.97L73.5624 10.0004C73.4095 11.026 72.5433 11.8978 71.4732 11.8978H58.7343C57.7662 11.9491 57.0018 12.5645 56.7471 13.4363L57.0018 11.8978L57.4095 9.48758C57.5624 8.41065 58.4796 7.59014 59.5496 7.59014Z" fill="white"/>
<path d="M55.7788 19.1282L56.1865 16.7179C56.3393 15.6923 57.2056 14.8718 58.2756 14.8718H72.696L72.2883 17.2821C72.1355 18.3077 71.2692 19.1795 70.1992 19.1795H55.7788V19.1282Z" fill="white"/>
<path d="M36.8235 19.129L31.677 6.82133L28.9763 0.308487L27.04 3.23157L16.5432 19.0777H21.384H22.2502L28.0082 10.3598L31.677 19.0777L36.8235 19.129Z" fill="white"/>
<path d="M123.702 18.7692L118.556 6.46154L115.804 0L113.868 2.92308L103.371 18.7692H108.212H109.078L114.836 10.0513L118.505 18.7692H123.702Z" fill="white"/>
</g>
<defs>
<clipPath id="clip0">
<rect width="160" height="20" fill="white" transform="translate(0.186523)"/>
</clipPath>
</defs>
</svg>
