<svg width="129" height="82" viewBox="0 0 129 82" fill="none" xmlns="http://www.w3.org/2000/svg">
<path d="M51.4459 34.251H61.5402L61.2548 35.9382C61.1478 36.6561 60.5415 37.2664 59.7924 37.2664H50.8752C50.1975 37.3023 49.6625 37.7331 49.4841 38.3433L49.6625 37.2664L49.9478 35.5792C50.0548 34.8254 50.6612 34.251 51.4459 34.251Z" fill="white"/>
<path d="M21.4127 36.1544L19.0586 38.416C18.5592 37.5544 17.7032 37.1236 16.5261 37.1236C13.958 37.1236 12.4242 38.8467 12.4242 41.7185C12.4242 43.4775 13.4943 44.5544 15.135 44.5544C16.2764 44.5544 17.3108 44.1237 18.1669 43.2621L19.986 45.9544C18.6662 47.0673 16.9898 47.6416 14.9567 47.6416C13.1376 47.6416 11.6752 47.139 10.6051 46.098C9.53503 45.057 9 43.657 9 41.898C9 39.7801 9.74904 37.9134 11.2471 36.3698C12.7452 34.8262 14.5643 34.0365 16.7045 34.0365C18.9516 34.0365 20.2 34.7185 21.4127 36.1544Z" fill="white"/>
<path d="M43.3133 34.251C44.5261 34.251 45.5247 34.61 46.3451 35.3279C47.1655 36.0459 47.5935 36.9792 47.5935 38.1279C47.5935 40.1023 46.4521 41.7177 44.6687 42.5074L46.6661 47.3895H43.028L41.3159 43.01H39.7821L39.0331 47.3895H35.6445L37.9273 34.251H43.3133ZM40.8165 37.1587L40.2815 40.1023H42.3146C43.3133 40.1023 44.1694 39.4202 44.1694 38.3433C44.1694 37.6254 43.67 37.1587 42.8496 37.1587H40.8165Z" fill="white"/>
<path d="M72.6332 35.5436L70.5287 38.0923C69.851 37.4462 68.8879 37.0872 67.7465 37.0872C66.7478 37.0872 65.9988 37.4103 65.9988 38.0923C65.9988 38.5949 66.4268 38.8821 67.8892 39.1692C70.7071 39.7077 71.7771 40.9282 71.7771 42.8667C71.7771 46.241 68.9236 47.6051 66.0701 47.6051C63.8943 47.6051 62.1822 46.959 60.9695 45.6667L63.0739 43.082C63.395 43.5128 63.8587 43.8718 64.465 44.1231C65.0714 44.3744 65.7134 44.482 66.3555 44.482C67.6395 44.482 68.3172 44.1231 68.3172 43.441C68.3172 42.9385 67.8892 42.6513 66.3555 42.3282C63.8587 41.8256 62.6102 40.6051 62.6102 38.6667C62.6102 37.3385 63.1096 36.1897 64.1083 35.3282C65.1071 34.4308 66.3911 34 67.9249 34C69.9223 34 71.4918 34.5385 72.6332 35.5436Z" fill="white"/>
<path d="M85.2954 34.251L84.7961 37.2305H80.8012L79.0177 47.3895H75.6292L77.4126 37.2305H73.4177L73.9171 34.251H85.2954Z" fill="white"/>
<path d="M107.981 36.1179L105.627 38.3795C105.127 37.5179 104.271 37.0872 103.094 37.0872C100.526 37.0872 98.9923 38.8103 98.9923 41.6821C98.9923 43.441 100.062 44.5179 101.703 44.5179C102.845 44.5179 103.879 44.0872 104.735 43.2256L106.554 45.9179C105.234 47.0308 103.558 47.6051 101.525 47.6051C99.7057 47.6051 98.2433 47.1026 97.1732 46.0615C96.1031 45.0205 95.5681 43.6205 95.5681 41.8615C95.5681 39.7436 96.3172 37.8769 97.8152 36.3333C99.3133 34.7897 101.132 34 103.308 34C105.484 34 106.768 34.6821 107.981 36.1179Z" fill="white"/>
<path d="M114.722 40.4262L121 34.2518H117.005L112.154 39.0262L113.01 34.2159H109.657L107.375 47.3544H110.727L111.441 43.298L112.154 42.5801L115.115 47.3544H119.074L114.722 40.4262Z" fill="white"/>
<path d="M50.5541 39.3131H60.6483L60.363 41.0003C60.256 41.7182 59.6496 42.3285 58.9006 42.3285H49.9834C49.3057 42.3644 48.7706 42.7952 48.5923 43.4054L48.7706 42.3285L49.056 40.6413C49.163 39.8875 49.805 39.3131 50.5541 39.3131Z" fill="white"/>
<path d="M47.9146 47.3897L48.1999 45.7026C48.3069 44.9846 48.9133 44.4102 49.6623 44.4102H59.7566L59.4712 46.0974C59.3642 46.8154 58.7579 47.4256 58.0088 47.4256H47.9146V47.3897Z" fill="white"/>
<path d="M34.6459 47.3903L31.0433 38.7749L29.1529 34.2159L27.7975 36.2621L20.4497 47.3544H23.8382H24.4446L28.4752 41.2519L31.0433 47.3544L34.6459 47.3903Z" fill="white"/>
<path d="M95.4611 47.1385L91.8586 38.5231L89.9324 34L88.577 36.0462L81.2292 47.1385H84.6178H85.2242L89.2547 41.0359L91.8229 47.1385H95.4611Z" fill="white"/>
<path d="M51.4459 34.251H61.5402L61.2548 35.9382C61.1478 36.6561 60.5415 37.2664 59.7924 37.2664H50.8752C50.1975 37.3023 49.6625 37.7331 49.4841 38.3433L49.6625 37.2664L49.9478 35.5792C50.0548 34.8254 50.6612 34.251 51.4459 34.251Z" fill="white"/>
<path d="M21.4127 36.1544L19.0586 38.416C18.5592 37.5544 17.7032 37.1236 16.5261 37.1236C13.958 37.1236 12.4242 38.8467 12.4242 41.7185C12.4242 43.4775 13.4943 44.5544 15.135 44.5544C16.2764 44.5544 17.3108 44.1237 18.1669 43.2621L19.986 45.9544C18.6662 47.0673 16.9898 47.6416 14.9567 47.6416C13.1376 47.6416 11.6752 47.139 10.6051 46.098C9.53503 45.057 9 43.657 9 41.898C9 39.7801 9.74904 37.9134 11.2471 36.3698C12.7452 34.8262 14.5643 34.0365 16.7045 34.0365C18.9516 34.0365 20.2 34.7185 21.4127 36.1544Z" fill="white"/>
<path d="M43.3133 34.251C44.5261 34.251 45.5247 34.61 46.3451 35.3279C47.1655 36.0459 47.5935 36.9792 47.5935 38.1279C47.5935 40.1023 46.4521 41.7177 44.6687 42.5074L46.6661 47.3895H43.028L41.3159 43.01H39.7821L39.0331 47.3895H35.6445L37.9273 34.251H43.3133ZM40.8165 37.1587L40.2815 40.1023H42.3146C43.3133 40.1023 44.1694 39.4202 44.1694 38.3433C44.1694 37.6254 43.67 37.1587 42.8496 37.1587H40.8165Z" fill="white"/>
<path d="M72.6332 35.5436L70.5287 38.0923C69.851 37.4462 68.8879 37.0872 67.7465 37.0872C66.7478 37.0872 65.9988 37.4103 65.9988 38.0923C65.9988 38.5949 66.4268 38.8821 67.8892 39.1692C70.7071 39.7077 71.7771 40.9282 71.7771 42.8667C71.7771 46.241 68.9236 47.6051 66.0701 47.6051C63.8943 47.6051 62.1822 46.959 60.9695 45.6667L63.0739 43.082C63.395 43.5128 63.8587 43.8718 64.465 44.1231C65.0714 44.3744 65.7134 44.482 66.3555 44.482C67.6395 44.482 68.3172 44.1231 68.3172 43.441C68.3172 42.9385 67.8892 42.6513 66.3555 42.3282C63.8587 41.8256 62.6102 40.6051 62.6102 38.6667C62.6102 37.3385 63.1096 36.1897 64.1083 35.3282C65.1071 34.4308 66.3911 34 67.9249 34C69.9223 34 71.4918 34.5385 72.6332 35.5436Z" fill="white"/>
<path d="M85.2954 34.251L84.7961 37.2305H80.8012L79.0177 47.3895H75.6292L77.4126 37.2305H73.4177L73.9171 34.251H85.2954Z" fill="white"/>
<path d="M107.981 36.1179L105.627 38.3795C105.127 37.5179 104.271 37.0872 103.094 37.0872C100.526 37.0872 98.9923 38.8103 98.9923 41.6821C98.9923 43.441 100.062 44.5179 101.703 44.5179C102.845 44.5179 103.879 44.0872 104.735 43.2256L106.554 45.9179C105.234 47.0308 103.558 47.6051 101.525 47.6051C99.7057 47.6051 98.2433 47.1026 97.1732 46.0615C96.1031 45.0205 95.5681 43.6205 95.5681 41.8615C95.5681 39.7436 96.3172 37.8769 97.8152 36.3333C99.3133 34.7897 101.132 34 103.308 34C105.484 34 106.768 34.6821 107.981 36.1179Z" fill="white"/>
<path d="M114.722 40.4262L121 34.2518H117.005L112.154 39.0262L113.01 34.2159H109.657L107.375 47.3544H110.727L111.441 43.298L112.154 42.5801L115.115 47.3544H119.074L114.722 40.4262Z" fill="white"/>
<path d="M50.5541 39.3131H60.6483L60.363 41.0003C60.256 41.7182 59.6496 42.3285 58.9006 42.3285H49.9834C49.3057 42.3644 48.7706 42.7952 48.5923 43.4054L48.7706 42.3285L49.056 40.6413C49.163 39.8875 49.805 39.3131 50.5541 39.3131Z" fill="white"/>
<path d="M47.9146 47.3897L48.1999 45.7026C48.3069 44.9846 48.9133 44.4102 49.6623 44.4102H59.7566L59.4712 46.0974C59.3642 46.8154 58.7579 47.4256 58.0088 47.4256H47.9146V47.3897Z" fill="white"/>
<path d="M34.6459 47.3903L31.0433 38.7749L29.1529 34.2159L27.7975 36.2621L20.4497 47.3544H23.8382H24.4446L28.4752 41.2519L31.0433 47.3544L34.6459 47.3903Z" fill="white"/>
<path d="M95.4611 47.1385L91.8586 38.5231L89.9324 34L88.577 36.0462L81.2292 47.1385H84.6178H85.2242L89.2547 41.0359L91.8229 47.1385H95.4611Z" fill="white"/>
</svg>
