<svg width="59" height="46" viewBox="0 0 59 46" fill="none" xmlns="http://www.w3.org/2000/svg">
<path d="M29.0381 0L30.6052 1.61322V12.5371H27.4249V1.61322L29.0381 0ZM10.6012 4.51703L11.2926 2.39679L13.4589 3.13427L18.1603 12.998L15.2565 14.3347L10.6012 4.51703ZM40.3768 12.998L45.0321 3.13427L47.1523 2.39679L47.8898 4.51703L43.1884 14.3347L40.3768 12.998ZM58.3988 30.6974C57.1082 32.3874 55.8176 33.8778 54.5271 35.1683C53.2365 36.4589 51.7308 37.7188 50.01 38.9479C46.9065 41.1911 43.5879 42.9272 40.0541 44.1563C36.5511 45.3854 32.9866 46 29.3607 46C25.6426 46 22.0013 45.3854 18.4369 44.1563C14.8724 42.9579 11.5077 41.2064 8.34269 38.9018C5.08551 36.505 2.30461 33.7702 0 30.6974C1.32131 28.9459 2.61189 27.4402 3.87174 26.1804C5.16233 24.8898 6.668 23.6299 8.38878 22.4008C11.523 20.1576 14.8724 18.4369 18.4369 17.2385C22.0013 16.0401 25.6426 15.4409 29.3607 15.4409C33.0174 15.4409 36.5818 16.0401 40.0541 17.2385C43.5571 18.4061 46.8758 20.1269 50.01 22.4008C51.7308 23.6299 53.2519 24.9051 54.5732 26.2265C55.8945 27.5478 57.1697 29.0381 58.3988 30.6974ZM23.1844 41.4369C25.3353 41.8671 27.3788 42.0822 29.3146 42.0822C31.2198 42.0822 33.2017 41.8671 35.2605 41.4369C37.1349 40.3921 38.656 38.8864 39.8237 36.9198C40.9913 34.9532 41.5752 32.8791 41.5752 30.6974C41.5752 28.4542 40.9913 26.3647 39.8237 24.4289C38.656 22.4623 37.0889 20.9412 35.1222 19.8657C33.3093 19.497 31.3888 19.3126 29.3607 19.3126C27.2098 19.3126 25.1356 19.5277 23.1383 19.9579C21.2024 21.0027 19.666 22.493 18.5291 24.4289C17.3921 26.3647 16.8237 28.4542 16.8237 30.6974C16.8237 32.9406 17.3921 35.0147 18.5291 36.9198C19.666 38.8557 21.2178 40.3614 23.1844 41.4369ZM53.4209 30.6974C50.1022 26.9793 46.169 24.1677 41.6213 22.2625C42.6353 23.4302 43.4035 24.7361 43.9259 26.1804C44.479 27.6246 44.7555 29.1149 44.7555 30.6513C44.7555 32.1877 44.479 33.678 43.9259 35.1222C43.4035 36.5972 42.6353 37.9185 41.6213 39.0862C46.3841 36.9967 50.3173 34.2004 53.4209 30.6974ZM4.97796 30.6974C6.54509 32.4796 8.37342 34.1082 10.4629 35.5832C12.5524 37.0581 14.642 38.2104 16.7315 39.0401C15.7174 37.8724 14.9492 36.5665 14.4269 35.1222C13.9045 33.678 13.6433 32.2031 13.6433 30.6974C13.6433 29.1917 13.9045 27.7168 14.4269 26.2725C14.9492 24.8283 15.7174 23.507 16.7315 22.3086C12.0608 24.3367 8.14295 27.1329 4.97796 30.6974ZM36.2746 30.6513C36.2746 31.9112 35.9519 33.0788 35.3066 34.1543C34.6921 35.2605 33.8317 36.1363 32.7255 36.7816C31.65 37.4269 30.4823 37.7495 29.2224 37.7495C27.9011 37.7495 26.6874 37.4269 25.5812 36.7816C24.5057 36.1363 23.6607 35.2605 23.0461 34.1543C22.4315 33.0788 22.1243 31.9112 22.1243 30.6513C22.1243 29.3915 22.4469 28.2238 23.0922 27.1483C23.7375 26.0421 24.5979 25.1663 25.6734 24.521C26.7488 23.8758 27.9319 23.5531 29.2224 23.5531C30.513 23.5531 31.6961 23.8758 32.7715 24.521C33.847 25.1663 34.6921 26.0421 35.3066 27.1483C35.9519 28.2238 36.2746 29.3915 36.2746 30.6513ZM29.2224 34.5691C30.2979 34.5691 31.2044 34.185 31.9419 33.4168C32.7101 32.6486 33.0942 31.7268 33.0942 30.6513C33.0942 29.5758 32.7101 28.654 31.9419 27.8858C31.1737 27.1176 30.2672 26.7335 29.2224 26.7335C28.1162 26.7335 27.179 27.1176 26.4108 27.8858C25.6734 28.654 25.3046 29.5758 25.3046 30.6513C25.3046 31.7268 25.6734 32.6486 26.4108 33.4168C27.179 34.185 28.1162 34.5691 29.2224 34.5691Z" fill="white"/>
</svg>
