<svg width="129" height="82" viewBox="0 0 129 82" fill="none" xmlns="http://www.w3.org/2000/svg">
<path d="M25.4295 59.3447C22.3706 59.2187 19.8679 58.3507 17.911 56.7385C17.5376 56.4305 16.6476 55.5071 16.3491 55.1176C15.5555 54.0828 15.016 53.0758 14.6562 51.9584C13.5489 48.5189 14.1188 44.0055 16.2862 39.0522C18.142 34.8114 21.0056 30.6055 26.0015 24.7803C26.7374 23.9232 28.929 21.4163 28.9431 21.4163C28.9484 21.4163 28.8289 21.6309 28.6786 21.8922C27.3796 24.1486 26.2681 26.8064 25.6626 29.1074C24.6899 32.7995 24.8073 35.9679 26.0062 38.4248C26.8333 40.1174 28.2512 41.5834 29.8456 42.3939C32.6369 43.8121 36.7235 43.9295 41.7142 42.7372C42.0578 42.6546 59.0842 37.9674 79.5509 32.3209C100.018 26.6739 116.766 22.0573 116.768 22.0611C116.774 22.066 69.2186 43.169 44.5317 54.1171C40.6221 55.8504 39.5766 56.2882 37.7386 56.9574C33.0402 58.6685 28.8316 59.4849 25.4295 59.3447Z" fill="white"/>
</svg>
