<svg width="24" height="48" viewBox="0 0 24 48" fill="none" xmlns="http://www.w3.org/2000/svg">
<path d="M11.8745 11.1479L0 18.3658V34.1372C0 34.1372 0.206701 42.1051 9.45234 47.9995V33.5938L4.67843 33.1252L2.67389 28.3228C2.68089 28.3228 11.8743 29.4853 11.8743 29.4853C11.8743 29.4853 21.0679 28.3228 21.0747 28.3228L19.0706 33.1249L14.2967 33.5936V48C23.5419 42.1054 23.7486 34.1377 23.7486 34.1377V18.3663L11.8745 11.1479Z" fill="white"/>
<path d="M11.8745 11.1479L23.7488 18.3658V34.1372C23.7488 34.1372 23.5421 42.1051 14.297 47.9993V33.5936L19.0709 33.1252L21.0757 28.3225C21.0692 28.3225 11.8753 29.4845 11.8753 29.4845" fill="white"/>
<path d="M6.7146 0H11.8747V11.1282L6.7146 0Z" fill="white"/>
<path d="M17.0348 0H11.8745V11.1282L17.0348 0Z" fill="white"/>
</svg>
