<svg width="140" height="19" viewBox="0 0 140 19" fill="none" xmlns="http://www.w3.org/2000/svg">
<path d="M4.50006 4.22473L0 6.96006V12.9369C0 12.9369 0.0783328 15.9565 3.58213 18.1903V12.731L1.77297 12.5534L1.01332 10.7334C1.01597 10.7334 4.49997 11.174 4.49997 11.174C4.49997 11.174 7.98406 10.7334 7.98662 10.7334L7.22715 12.5533L5.418 12.7309V18.1905C8.9216 15.9566 8.99993 12.9371 8.99993 12.9371V6.96025L4.50006 4.22473Z" fill="white"/>
<path d="M4.5 4.22473L8.99997 6.96006V12.9369C8.99997 12.9369 8.92163 15.9565 5.41803 18.1902V12.7309L7.22718 12.5534L7.98693 10.7333C7.98447 10.7333 4.50028 11.1737 4.50028 11.1737" fill="white"/>
<path d="M2.54468 0H4.50018V4.21723L2.54468 0Z" fill="white"/>
<path d="M6.45559 0H4.5V4.21723L6.45559 0Z" fill="white"/>
<path d="M20.7039 7.46198H23.9772V5.25825H15V7.46198H18.2733V16.7418H20.7039V7.46198Z" fill="white"/>
<path d="M33.3479 5.25825H25.2944V16.7418H33.4451V14.538H27.725V11.7317H32.6349V9.70014H27.725V7.46198H33.3479V5.25825Z" fill="white"/>
<path d="M37.6142 12.1449H39.2346C40.4823 12.1449 41.0657 12.7647 41.1629 14.1765L41.2601 15.7432C41.2925 16.3286 41.3736 16.5007 41.6652 16.7418H44.0473C43.7394 16.2597 43.6584 16.0014 43.6098 15.2439L43.5287 13.6083C43.4477 12.0933 43.075 11.4907 42.0055 11.1291C43.2209 10.6471 43.8042 9.75179 43.8042 8.35725C43.8042 7.32425 43.4315 6.46342 42.7671 5.94692C42.119 5.44763 41.3412 5.25825 39.9476 5.25825H35.2322V16.7418H37.6142V12.1449ZM37.6142 10.1133V7.46198H39.9962C40.8874 7.46198 41.3736 7.94405 41.3736 8.78766C41.3736 9.63128 40.8874 10.1133 39.9962 10.1133H37.6142Z" fill="white"/>
<path d="M48.2957 12.1449H49.9161C51.1639 12.1449 51.7472 12.7647 51.8444 14.1765L51.9417 15.7432C51.9741 16.3286 52.0551 16.5007 52.3468 16.7418H54.7288C54.4209 16.2597 54.3399 16.0014 54.2913 15.2439L54.2102 13.6083C54.1292 12.0933 53.7565 11.4907 52.687 11.1291C53.9024 10.6471 54.4857 9.75179 54.4857 8.35725C54.4857 7.32425 54.113 6.46342 53.4486 5.94692C52.8005 5.44763 52.0227 5.25825 50.6291 5.25825H45.9137V16.7418H48.2957V12.1449ZM48.2957 10.1133V7.46198H50.6777C51.569 7.46198 52.0551 7.94405 52.0551 8.78766C52.0551 9.63128 51.569 10.1133 50.6777 10.1133H48.2957Z" fill="white"/>
<path d="M59.0258 5.25825H56.5952V16.7418H59.0258V5.25825Z" fill="white"/>
<path d="M69.251 5.25825H61.3109V16.7418H63.7415V12.1449H68.5704V10.0273H63.7415V7.46198H69.251V5.25825Z" fill="white"/>
<path d="M73.252 5.25825H70.8214V16.7418H73.252V5.25825Z" fill="white"/>
<path d="M84.9842 8.92539C84.6925 6.48063 82.91 5 80.3011 5C77.0927 5 75.0834 7.30703 75.0834 10.9914C75.0834 14.6585 77.1251 17 80.3173 17C82.991 17 84.8221 15.3816 85.1138 12.7819H82.5373C82.2456 14.1593 81.5002 14.8135 80.2525 14.8135C78.5349 14.8135 77.514 13.3845 77.514 10.9914C77.514 8.58106 78.5349 7.18651 80.3173 7.18651C81.4678 7.18651 82.2618 7.82353 82.5049 8.92539H84.9842Z" fill="white"/>
<path d="M98.0976 16.7418L99.5722 10.6126C99.5884 10.5954 99.637 10.3716 99.7342 10.0617C99.7828 9.90674 99.8963 9.44189 100.075 8.75323C100.042 9.16643 100.042 9.42468 100.042 9.64849L100.026 10.7504V16.7418H102.246V5.25825H98.8592L97.4494 11.2324C97.4494 11.2669 97.3684 11.6284 97.2874 11.99C97.2226 12.2999 97.1577 12.5581 97.1253 12.7647L96.9471 13.505C96.9471 13.5222 96.9309 13.6428 96.8823 13.8666C96.7526 13.109 96.5744 12.1621 96.3637 11.2669L94.9864 5.25825H91.5673V16.7418H93.7873V10.7504L93.771 9.64849C93.771 9.45911 93.771 9.16643 93.7386 8.75323C93.8359 9.08034 93.8521 9.14921 93.9331 9.51076C93.9979 9.75179 94.0951 10.1133 94.2086 10.6298L95.6993 16.7418H98.0976Z" fill="white"/>
<path d="M106.974 5.25825H104.543V16.7418H106.974V5.25825Z" fill="white"/>
<path d="M118.042 16.7418V5.25825H115.822V10.4921V11.3185L115.838 12.1793C115.838 12.5237 115.838 12.8336 115.87 13.2984C115.465 12.4376 115.19 11.835 114.768 10.9742L111.787 5.25825H109.259V16.7418H111.479V12.0244C111.479 11.3013 111.479 10.6298 111.463 10.01C111.463 9.66571 111.463 9.23529 111.43 8.63271L112.548 10.8709L115.611 16.7418H118.042Z" fill="white"/>
<path d="M120.32 16.7418H124.064C126.073 16.7418 127.272 16.2941 128.212 15.2267C129.103 14.1937 129.622 12.627 129.622 10.9397C129.622 9.32138 129.152 7.87518 128.293 6.84218C127.321 5.67145 126.17 5.25825 123.982 5.25825H120.32V16.7418ZM122.751 14.538V7.46198H124.55C125.538 7.46198 126.202 7.82353 126.624 8.61549C126.98 9.26973 127.142 10.0273 127.142 10.9914C127.142 11.99 126.964 12.7819 126.608 13.4189C126.154 14.2109 125.489 14.538 124.388 14.538H122.751Z" fill="white"/>
<path d="M139.838 8.85653C139.741 7.82353 139.562 7.20373 139.206 6.63558C138.509 5.55093 137.278 5 135.528 5C132.789 5 131.185 6.32568 131.185 8.54663C131.185 9.47633 131.493 10.3199 132.044 10.802C132.53 11.2496 133.243 11.5768 134.393 11.8694L136.354 12.3859C137.132 12.5925 137.521 12.9885 137.521 13.5567C137.521 14.3659 136.759 14.8479 135.511 14.8479C134.037 14.8479 133.34 14.2626 133.291 12.9541H130.861C130.877 15.5194 132.562 17 135.479 17C138.282 17 140 15.5366 140 13.1607C140 12.2482 139.725 11.5079 139.174 10.9742C138.655 10.4577 137.991 10.1478 136.792 9.83788L134.604 9.30416C133.94 9.13199 133.616 8.80488 133.616 8.32281C133.616 7.59971 134.312 7.15208 135.463 7.15208C136.694 7.15208 137.407 7.70301 137.407 8.66715V8.85653H139.838Z" fill="white"/>
</svg>
